<svg width="27" height="28" viewBox="0 0 27 28" fill="none" xmlns="http://www.w3.org/2000/svg">
<path d="M7.73333 0.666992H18.9333C23.2 0.666992 26.6667 4.13366 26.6667 8.40033V19.6003C26.6667 21.6513 25.8519 23.6183 24.4016 25.0686C22.9513 26.5189 20.9843 27.3337 18.9333 27.3337H7.73333C3.46667 27.3337 0 23.867 0 19.6003V8.40033C0 6.34932 0.81476 4.38231 2.26504 2.93203C3.71532 1.48175 5.68233 0.666992 7.73333 0.666992ZM7.46667 3.33366C6.19363 3.33366 4.97273 3.83937 4.07255 4.73955C3.17238 5.63972 2.66667 6.86062 2.66667 8.13366V19.867C2.66667 22.5203 4.81333 24.667 7.46667 24.667H19.2C20.473 24.667 21.6939 24.1613 22.5941 23.2611C23.4943 22.3609 24 21.14 24 19.867V8.13366C24 5.48033 21.8533 3.33366 19.2 3.33366H7.46667ZM20.3333 5.33366C20.7754 5.33366 21.1993 5.50925 21.5118 5.82181C21.8244 6.13438 22 6.5583 22 7.00033C22 7.44235 21.8244 7.86628 21.5118 8.17884C21.1993 8.4914 20.7754 8.66699 20.3333 8.66699C19.8913 8.66699 19.4674 8.4914 19.1548 8.17884C18.8423 7.86628 18.6667 7.44235 18.6667 7.00033C18.6667 6.5583 18.8423 6.13438 19.1548 5.82181C19.4674 5.50925 19.8913 5.33366 20.3333 5.33366ZM13.3333 7.33366C15.1014 7.33366 16.7971 8.03604 18.0474 9.28628C19.2976 10.5365 20 12.2322 20 14.0003C20 15.7684 19.2976 17.4641 18.0474 18.7144C16.7971 19.9646 15.1014 20.667 13.3333 20.667C11.5652 20.667 9.86953 19.9646 8.61929 18.7144C7.36905 17.4641 6.66667 15.7684 6.66667 14.0003C6.66667 12.2322 7.36905 10.5365 8.61929 9.28628C9.86953 8.03604 11.5652 7.33366 13.3333 7.33366ZM13.3333 10.0003C12.2725 10.0003 11.2551 10.4218 10.5049 11.1719C9.75476 11.922 9.33333 12.9395 9.33333 14.0003C9.33333 15.0612 9.75476 16.0786 10.5049 16.8288C11.2551 17.5789 12.2725 18.0003 13.3333 18.0003C14.3942 18.0003 15.4116 17.5789 16.1618 16.8288C16.9119 16.0786 17.3333 15.0612 17.3333 14.0003C17.3333 12.9395 16.9119 11.922 16.1618 11.1719C15.4116 10.4218 14.3942 10.0003 13.3333 10.0003Z" fill="#212627"/>
</svg>
