<svg width="27" height="28" fill="none" xmlns="http://www.w3.org/2000/svg"><path d="M7.733.667h11.2A7.739 7.739 0 0126.667 8.4v11.2a7.733 7.733 0 01-7.734 7.734h-11.2A7.739 7.739 0 010 19.6V8.4A7.733 7.733 0 017.733.667zm-.266 2.667a4.8 4.8 0 00-4.8 4.8v11.733c0 2.653 2.146 4.8 4.8 4.8H19.2a4.8 4.8 0 004.8-4.8V8.134c0-2.654-2.147-4.8-4.8-4.8H7.467zm12.866 2a1.666 1.666 0 110 3.332 1.666 1.666 0 010-3.332zm-7 2a6.667 6.667 0 110 13.334 6.667 6.667 0 010-13.334zm0 2.666a4 4 0 100 8.001 4 4 0 000-8z" fill="#212627"/></svg>