<svg width="82" height="39" fill="none" xmlns="http://www.w3.org/2000/svg"><path d="M14.414 11.296a3.74 3.74 0 01-.36 1.622c-.24.494-.634.928-1.181 1.301-.534.36-1.235.648-2.102.861-.854.214-1.909.32-3.163.32-.708 0-1.402-.053-2.082-.16a12.613 12.613 0 01-1.922-.46c-.601-.2-1.162-.44-1.682-.72A7.33 7.33 0 01.6 13.097l1-1.201a8.018 8.018 0 002.663 1.501c1.015.334 2.129.5 3.344.5 1.348 0 2.302-.186 2.862-.56.561-.373.841-.887.841-1.541 0-.507-.22-.934-.66-1.282-.44-.347-1.188-.687-2.243-1.02L4.605 8.293c-1.255-.4-2.203-.907-2.843-1.521C1.122 6.144.8 5.35.8 4.389c0-.493.113-.967.34-1.421.24-.467.607-.874 1.101-1.221.494-.36 1.121-.64 1.882-.841.774-.214 1.702-.32 2.783-.32.654 0 1.301.053 1.942.16.654.107 1.274.26 1.862.46.6.2 1.154.447 1.661.741.52.28.968.594 1.342.94l-1 1.203a7.945 7.945 0 00-2.563-1.481c-.947-.347-2.029-.52-3.243-.52-1.001 0-1.755.173-2.262.52-.494.347-.741.774-.741 1.28 0 .281.047.528.14.742.093.2.247.393.46.58.227.174.521.34.881.5.36.148.808.308 1.342.481l3.784 1.201c1.214.387 2.168.895 2.862 1.522s1.041 1.421 1.041 2.382zm7.608-7.107c.427 0 .854.04 1.281.12.427.067.834.167 1.221.3.4.12.768.274 1.102.461.347.187.647.394.9.62l-.8 1.202a7.154 7.154 0 00-1.682-.961 4.81 4.81 0 00-1.822-.34c-.48 0-.92.08-1.321.24a2.46 2.46 0 00-1.041.74c-.294.334-.527.768-.7 1.302-.161.534-.241 1.174-.241 1.922 0 .747.08 1.388.24 1.922.174.534.414.974.72 1.321.308.334.675.58 1.102.74.44.148.92.221 1.441.221a4.81 4.81 0 001.822-.34 7.156 7.156 0 001.682-.961l.8 1.2a4.648 4.648 0 01-.9.622c-.334.186-.7.347-1.101.48-.387.12-.794.213-1.222.28a6.94 6.94 0 01-1.28.12c-.948 0-1.816-.126-2.603-.38-.774-.24-1.435-.594-1.982-1.061a5.005 5.005 0 01-1.282-1.762c-.293-.694-.44-1.495-.44-2.402 0-.894.147-1.689.44-2.383a4.883 4.883 0 011.262-1.761A5.217 5.217 0 0119.54 4.57c.747-.254 1.574-.38 2.482-.38zM39.744 15h-2.802V8.694c0-.961-.24-1.649-.721-2.062-.48-.427-1.175-.641-2.082-.641h-2.603V15h-2.803V.986h2.803V4.59h2.603c1.908 0 3.316.347 4.224 1.04.92.681 1.381 1.702 1.381 3.064V15zm8.3-.9c.427 0 .828-.081 1.201-.241a2.62 2.62 0 00.981-.74c.28-.348.5-.795.66-1.342.174-.547.261-1.208.261-1.982s-.087-1.435-.26-1.982c-.16-.547-.38-.988-.66-1.321a2.54 2.54 0 00-.982-.761 3.017 3.017 0 00-1.2-.24c-.428 0-.828.08-1.202.24-.374.16-.7.413-.981.76-.28.334-.507.775-.68 1.322-.16.547-.241 1.208-.241 1.982s.08 1.435.24 1.982c.174.547.4.994.68 1.341.281.334.608.58.982.74.374.161.774.241 1.201.241zm0-9.91c.894 0 1.715.126 2.463.38.76.24 1.408.6 1.942 1.08a4.685 4.685 0 011.24 1.762c.308.694.461 1.489.461 2.383 0 .907-.153 1.708-.46 2.402a4.906 4.906 0 01-1.241 1.762c-.534.467-1.182.82-1.942 1.061-.748.254-1.569.38-2.463.38-.907 0-1.735-.126-2.482-.38a5.375 5.375 0 01-1.922-1.061 5.125 5.125 0 01-1.262-1.762c-.293-.694-.44-1.495-.44-2.402 0-.894.147-1.689.44-2.383a4.883 4.883 0 011.262-1.761 5.217 5.217 0 011.922-1.081c.747-.254 1.575-.38 2.482-.38zm-.8-2.303c0 .4-.14.754-.421 1.061-.267.294-.627.44-1.081.44-.454 0-.821-.146-1.101-.44a1.57 1.57 0 01-.4-1.061c0-.4.133-.748.4-1.041.28-.307.647-.46 1.1-.46.441 0 .802.153 1.082.46.28.293.42.64.42 1.04zm4.604 0c0 .4-.14.754-.42 1.061-.267.294-.628.44-1.082.44-.453 0-.82-.146-1.1-.44a1.57 1.57 0 01-.401-1.061c0-.4.133-.748.4-1.041.28-.307.648-.46 1.101-.46.44 0 .801.153 1.082.46.28.293.42.64.42 1.04zM67.468 15h-2.803V8.694c0-.961-.24-1.649-.721-2.062-.48-.427-1.175-.641-2.082-.641h-2.603V15h-2.803V4.59h5.406c1.908 0 3.316.347 4.224 1.04.92.681 1.381 1.702 1.381 3.064V15zm8.7-1.001a4.81 4.81 0 001.821-.34 7.156 7.156 0 001.682-.961l.8 1.2a4.648 4.648 0 01-.9.622c-.334.186-.7.347-1.101.48a8.64 8.64 0 01-1.221.28c-.427.08-.855.12-1.282.12-.947 0-1.815-.126-2.602-.38-.774-.24-1.435-.594-1.982-1.061a5.005 5.005 0 01-1.282-1.762c-.293-.694-.44-1.495-.44-2.402 0-.894.14-1.689.42-2.383.294-.707.694-1.294 1.202-1.761a5.092 5.092 0 011.841-1.081c.708-.254 1.489-.38 2.343-.38.8 0 1.555.12 2.262.36.707.24 1.321.593 1.842 1.06.52.454.934 1.008 1.241 1.662.307.654.46 1.395.46 2.223v1.4h-8.548c.16 1.109.54 1.903 1.141 2.383.614.48 1.382.721 2.303.721zm-.701-8.509c-.387 0-.748.074-1.081.22a2.316 2.316 0 00-.881.701c-.24.32-.44.734-.6 1.242-.148.507-.228 1.12-.241 1.842h5.606c0-.695-.08-1.295-.24-1.802-.16-.507-.374-.921-.641-1.242a2.209 2.209 0 00-.901-.72 2.336 2.336 0 00-1.021-.24zM8.609 23.986c1 0 1.895.113 2.682.34.801.214 1.475.534 2.022.961.547.414.968.928 1.262 1.542.293.6.44 1.288.44 2.062 0 .774-.147 1.468-.44 2.082a4.378 4.378 0 01-1.262 1.541c-.547.414-1.22.735-2.022.961-.787.214-1.681.32-2.682.32H4.304V38H1.401V23.986H8.61zm-4.305 1.502v6.806H8.61c1.054 0 1.868-.273 2.442-.82.587-.561.88-1.422.88-2.583 0-1.161-.293-2.015-.88-2.563-.574-.56-1.388-.84-2.442-.84H4.304zM18.12 27.79c0-1.308.407-2.336 1.221-3.083.814-.748 1.975-1.121 3.484-1.121a5.93 5.93 0 011.521.2c.52.133.981.3 1.382.5l-.601 1.302a4.857 4.857 0 00-.941-.4 3.412 3.412 0 00-1.161-.201c-.28 0-.547.053-.801.16a1.88 1.88 0 00-.68.5c-.188.214-.341.501-.461.862-.107.36-.16.787-.16 1.28v.201h3.103v1.401h-3.103V38H18.12v-8.609h-1.902V27.99h1.902v-.2zm13.11 9.31c.427 0 .828-.081 1.202-.241.373-.16.7-.407.98-.74.28-.348.501-.795.661-1.342.174-.547.26-1.208.26-1.982s-.086-1.435-.26-1.982c-.16-.547-.38-.988-.66-1.322-.28-.346-.608-.6-.981-.76a3.018 3.018 0 00-1.202-.24c-.427 0-.827.08-1.2.24-.375.16-.702.413-.982.76-.28.334-.507.775-.68 1.322-.16.547-.24 1.208-.24 1.982s.08 1.435.24 1.982c.173.547.4.994.68 1.341.28.334.608.58.981.74.374.161.774.241 1.201.241zm0-9.91c.895 0 1.716.126 2.463.38.76.24 1.408.6 1.942 1.08a4.686 4.686 0 011.241 1.762c.307.694.46 1.489.46 2.383 0 .907-.153 1.708-.46 2.402a4.908 4.908 0 01-1.241 1.762c-.534.467-1.181.82-1.942 1.061-.747.254-1.568.38-2.463.38-.907 0-1.735-.126-2.482-.38a5.375 5.375 0 01-1.922-1.061 5.125 5.125 0 01-1.261-1.762c-.294-.694-.44-1.495-.44-2.402 0-.894.146-1.689.44-2.383a4.882 4.882 0 011.261-1.761 5.216 5.216 0 011.922-1.081c.747-.254 1.575-.38 2.482-.38zm8.923 1.801H38.25V27.59h1.902v-3.204h2.802v3.204h3.104v1.401h-3.104v5.205c0 .507.054.941.16 1.302.12.346.274.634.461.86a1.982 1.982 0 001.481.641c.4 0 .788-.06 1.162-.18a5.76 5.76 0 00.94-.42l.601 1.3c-.4.2-.86.368-1.381.501-.507.134-1.014.2-1.522.2-1.508 0-2.669-.373-3.483-1.12-.814-.748-1.221-1.776-1.221-3.084v-5.205zm14.606 8.008a4.81 4.81 0 001.822-.34 7.156 7.156 0 001.682-.961l.8 1.2a4.648 4.648 0 01-.9.621c-.334.187-.7.348-1.101.481-.387.12-.794.214-1.221.28-.428.08-.855.12-1.282.12-.947 0-1.815-.126-2.602-.38-.775-.24-1.435-.594-1.982-1.061a5.005 5.005 0 01-1.282-1.762c-.293-.694-.44-1.495-.44-2.402 0-.894.14-1.689.42-2.383.294-.707.694-1.294 1.201-1.761a5.105 5.105 0 011.842-1.081c.708-.254 1.489-.38 2.343-.38.8 0 1.555.12 2.262.36.707.24 1.321.593 1.842 1.06.52.454.934 1.008 1.241 1.662.307.654.46 1.395.46 2.223v1.4h-8.548c.16 1.109.54 1.903 1.141 2.383.614.48 1.382.721 2.302.721zm-.7-8.509c-.387 0-.748.074-1.081.22a2.316 2.316 0 00-.881.701c-.24.32-.44.734-.6 1.242-.148.507-.228 1.12-.241 1.842h5.605c0-.694-.08-1.295-.24-1.802-.16-.508-.373-.921-.64-1.242a2.21 2.21 0 00-.901-.72 2.337 2.337 0 00-1.021-.24z" fill="#E1AEAD"/></svg>